<?xml version="1.0" encoding="utf-8"?>
<!-- Generator: Adobe Illustrator 16.0.0, SVG Export Plug-In . SVG Version: 6.00 Build 0)  -->
<!DOCTYPE svg PUBLIC "-//W3C//DTD SVG 1.1//EN" "http://www.w3.org/Graphics/SVG/1.1/DTD/svg11.dtd">
<svg version="1.1" xmlns="http://www.w3.org/2000/svg" xmlns:xlink="http://www.w3.org/1999/xlink" x="0px" y="0px" width="3710px"
	 height="3710px" viewBox="0 0 3710 3710" enable-background="new 0 0 3710 3710" xml:space="preserve">
<g id="Background">
	<g>
		<g>
			<rect fill="#FFFFFF" width="3710" height="3710"/>
		</g>
	</g>
</g>
<g id="Illustration">
	<g>
		<linearGradient id="SVGID_1_" gradientUnits="userSpaceOnUse" x1="3598.6133" y1="4076.5615" x2="1110.4709" y2="986.4443">
			<stop  offset="0" style="stop-color:#DAE3FE"/>
			<stop  offset="1" style="stop-color:#E9EFFD"/>
		</linearGradient>
		<path fill="url(#SVGID_1_)" d="M2914.11,2857.932c-57.152,60.166-111.228,98.968-153.953,129.623
			c-502.22,360.349-1096.48,255.309-1222.777,229.656c-186.501-37.879-547.003-111.099-807.64-417.603
			c-394.321-463.714-332.92-1194.282-27.058-1676.541c55.947-88.213,351.476-577.817,952.136-656.335
			c363.513-47.518,787.253,48.32,1094.114,305.408C3393.06,1311.792,3347.205,2401.983,2914.11,2857.932z"/>
		<g>
			
				<linearGradient id="SVGID_2_" gradientUnits="userSpaceOnUse" x1="-427.5601" y1="3245.5596" x2="122.3889" y2="2507.8242" gradientTransform="matrix(0.9643 -0.265 0.265 0.9643 443.8643 -134.8807)">
				<stop  offset="0" style="stop-color:#09005D"/>
				<stop  offset="1" style="stop-color:#1A0F91"/>
			</linearGradient>
			<path fill="url(#SVGID_2_)" d="M700.343,2215.875c0,0,418.583,573.369,531.848,685.448
				c131.479,130.103,364.355-39.819,315.874-165.616c-48.481-125.797-499.106-576.992-499.106-576.992L700.343,2215.875z"/>
			<linearGradient id="SVGID_3_" gradientUnits="userSpaceOnUse" x1="900.1396" y1="1471.459" x2="2637.9336" y2="1471.459">
				<stop  offset="0" style="stop-color:#4F52FF"/>
				<stop  offset="1" style="stop-color:#4042E2"/>
			</linearGradient>
			<polygon fill="url(#SVGID_3_)" points="900.14,1659.51 2264.846,721.997 2637.934,2141.658 1010.081,2220.921 			"/>
			
				<ellipse transform="matrix(0.9643 -0.265 0.265 0.9643 -291.8096 703.5734)" fill="#7D97F4" cx="2461.861" cy="1433.367" rx="153.691" ry="754.301"/>
			<linearGradient id="SVGID_4_" gradientUnits="userSpaceOnUse" x1="2267.8867" y1="1426.1689" x2="2676.0742" y2="1426.1689">
				<stop  offset="0" style="stop-color:#4F52FF"/>
				<stop  offset="1" style="stop-color:#4042E2"/>
			</linearGradient>
			<path fill="url(#SVGID_4_)" d="M2659.313,2107.873c-17.138-9.941-60.759-54.475-123.117-183.492
				c-60.267-124.683-120.39-291.362-169.296-469.334s-82.402-351.968-94.313-489.938c-12.329-142.769,2.41-203.339,12.06-220.643
				c17.139,9.943,60.76,54.475,123.119,183.496c60.267,124.682,120.39,291.361,169.297,469.333
				c48.906,177.971,82.402,351.968,94.313,489.939C2683.703,2030,2668.965,2090.569,2659.313,2107.873z"/>
			<g>
				<defs>
					<path id="SVGID_5_" d="M2659.313,2107.873c-17.138-9.941-60.759-54.475-123.117-183.492
						c-60.267-124.683-120.39-291.362-169.296-469.334s-82.402-351.968-94.313-489.938c-12.329-142.769,2.41-203.339,12.06-220.643
						c17.139,9.943,60.76,54.475,123.119,183.496c60.267,124.682,297.857,242.593,346.765,420.565
						c48.906,177.971-95.065,400.737-83.155,538.708C2683.703,2030,2668.965,2090.569,2659.313,2107.873z"/>
				</defs>
				<clipPath id="SVGID_6_">
					<use xlink:href="#SVGID_5_"  overflow="visible"/>
				</clipPath>
				
					<linearGradient id="SVGID_7_" gradientUnits="userSpaceOnUse" x1="1870.7002" y1="2017.5801" x2="779.6951" y2="2080.1797" gradientTransform="matrix(0.9643 -0.265 0.265 0.9643 443.8643 -134.8807)">
					<stop  offset="0" style="stop-color:#09005D"/>
					<stop  offset="1" style="stop-color:#1A0F91"/>
				</linearGradient>
				<path clip-path="url(#SVGID_6_)" fill="url(#SVGID_7_)" d="M2660.44,1368.556c33.961,123.582-5.082,242.061-136.847,278.27
					c-131.766,36.209-266.113-34.621-300.073-158.204c-33.96-123.582,45.325-253.119,177.091-289.329
					C2532.377,1163.084,2626.48,1244.973,2660.44,1368.556z"/>
			</g>
			
				<linearGradient id="SVGID_8_" gradientUnits="userSpaceOnUse" x1="-195.9585" y1="2405.1904" x2="-236.1993" y2="1392.4822" gradientTransform="matrix(0.9643 -0.265 0.265 0.9643 443.8643 -134.8807)">
				<stop  offset="0" style="stop-color:#09005D"/>
				<stop  offset="1" style="stop-color:#1A0F91"/>
			</linearGradient>
			<path fill="url(#SVGID_8_)" d="M648.493,1695.942c68.694-27.74,169.633-58.668,286.575-63.705
				c15.785,199.305,75.488,395.155,173.565,587.987l-310.308,85.273c-49.474,13.595-101.536-10.748-122.68-57.496
				c-42.383-93.705-106.532-253.146-122.709-390.916C544.817,1787.946,583.942,1722.009,648.493,1695.942z"/>
			<path fill="#7D97F4" d="M874.575,1789.78l-241.768,66.438c-8.206,2.255-16.629-0.058-22.532-6.188
				c-5.9-6.131-7.894-14.638-5.329-22.751c1.074-3.395,4.701-5.262,8.091-4.204c3.395,1.074,5.278,4.696,4.205,8.095
				c-1.117,3.537-0.25,7.242,2.323,9.917c2.573,2.671,6.248,3.681,9.826,2.698l241.768-66.438c5.302-1.457,8.43-6.953,6.973-12.255
				l-4.728-17.205c-1.458-5.302-6.954-8.428-12.256-6.971l-243.56,66.931c-3.435,0.944-6.982-1.076-7.925-4.508
				s1.074-6.981,4.508-7.925l243.561-66.931c12.158-3.341,24.766,3.833,28.106,15.987l4.728,17.206
				C893.904,1773.829,886.733,1786.439,874.575,1789.78z"/>
			<path fill="#7D97F4" d="M882.44,1902.777l-241.767,66.438c-8.207,2.255-16.629-0.058-22.532-6.188
				c-5.901-6.131-7.895-14.637-5.33-22.751c1.075-3.391,4.702-5.263,8.091-4.204c3.394,1.074,5.277,4.696,4.205,8.095
				c-1.118,3.537-0.25,7.242,2.323,9.918c2.574,2.671,6.249,3.681,9.827,2.697l241.767-66.438c5.303-1.457,8.43-6.952,6.973-12.254
				l-4.727-17.201c-1.457-5.303-6.955-8.432-12.257-6.975l-243.56,66.931c-3.434,0.943-6.982-1.076-7.925-4.509
				c-0.943-3.432,1.074-6.981,4.508-7.925l243.56-66.931c12.158-3.341,24.766,3.833,28.107,15.991l4.727,17.201
				C901.77,1886.827,894.598,1899.437,882.44,1902.777z"/>
			<path fill="#7D97F4" d="M938.459,2022.254l-241.768,66.438c-8.206,2.255-16.627-0.058-22.53-6.188s-7.896-14.638-5.332-22.752
				c1.073-3.398,4.699-5.27,8.09-4.207c3.395,1.074,5.277,4.695,4.204,8.09c-1.118,3.542-0.249,7.251,2.327,9.926
				c2.573,2.671,6.246,3.682,9.825,2.698l241.767-66.438c5.302-1.457,8.429-6.956,6.971-12.258l-4.727-17.202
				c-1.457-5.302-6.954-8.428-12.256-6.971l-243.561,66.931c-3.435,0.944-6.982-1.076-7.925-4.508
				c-0.943-3.433,1.074-6.981,4.509-7.926l243.56-66.931c12.158-3.341,24.767,3.833,28.106,15.987l4.727,17.202
				C957.789,2006.303,950.618,2018.913,938.459,2022.254z"/>
			<path fill="#7D97F4" d="M999.346,2155.224l-241.768,66.438c-8.206,2.255-16.627-0.059-22.53-6.189
				c-5.902-6.131-7.896-14.637-5.331-22.751c1.075-3.399,4.7-5.271,8.089-4.208c3.395,1.074,5.278,4.696,4.204,8.091
				c-1.118,3.542-0.249,7.251,2.327,9.925c2.573,2.672,6.246,3.682,9.824,2.699l241.767-66.438c5.303-1.457,8.43-6.952,6.973-12.255
				l-4.728-17.205c-1.457-5.303-6.954-8.428-12.256-6.971l-243.56,66.931c-3.435,0.943-6.982-1.076-7.926-4.509
				c-0.942-3.432,1.075-6.981,4.509-7.925l243.56-66.931c12.159-3.342,24.767,3.833,28.106,15.987l4.728,17.205
				C1018.675,2139.272,1011.504,2151.883,999.346,2155.224z"/>
			<path fill="#7D97F4" d="M1423.237,2852.66c-11.141,3.063-22.731,4.954-34.637,5.592c-52.097,2.799-101.02-18.616-134.225-58.756
				l-311.081-376.041c-2.271-2.74-1.885-6.804,0.857-9.076c2.742-2.272,6.81-1.88,9.078,0.861l311.081,376.041
				c30.573,36.953,75.624,56.672,123.597,54.094c47.153-2.523,89.004-26.408,114.835-65.52c1.385-2.096,2.766-4.238,4.144-6.424
				c1.897-3.011,5.877-3.917,8.892-2.017c3.012,1.897,3.917,5.88,2.017,8.892c-1.429,2.27-2.859,4.486-4.295,6.656
				C1491.921,2819.63,1460.068,2842.539,1423.237,2852.66z"/>
			<linearGradient id="SVGID_9_" gradientUnits="userSpaceOnUse" x1="962.2363" y1="2050.9824" x2="245.0947" y2="4757.1836">
				<stop  offset="0" style="stop-color:#CB236D"/>
				<stop  offset="1" style="stop-color:#4C246D"/>
			</linearGradient>
			<path fill="url(#SVGID_9_)" d="M903.978,2369.961c-2.372,0.652-5.012-0.09-6.679-2.104l-34.704-41.951
				c-2.27-2.741-1.885-6.805,0.857-9.077c2.742-2.269,6.81-1.88,9.078,0.858l34.702,41.946c2.271,2.745,1.886,6.808-0.857,9.081
				C905.649,2369.314,904.829,2369.727,903.978,2369.961z"/>
			<path fill="#91B3FA" d="M2623.351,1371.819c-3.233,0.888-6.649-0.863-7.782-4.074c-20.936-59.373-54.33-98.75-99.252-117.037
				c-77.688-31.624-164.573,10.457-165.442,10.892c-3.212,1.575-7.057,0.268-8.633-2.926c-1.577-3.192-0.267-7.062,2.927-8.635
				c3.757-1.855,93.01-45.057,176.01-11.275c48.486,19.737,84.336,61.691,106.55,124.691c1.185,3.357-0.577,7.041-3.937,8.226
				C2623.645,1371.734,2623.498,1371.778,2623.351,1371.819z"/>
		</g>
		<g>
			<path fill="#7D97F4" d="M3103.703,1088.534l-452.855,145.647c-7.187,2.312-14.887-1.641-17.197-8.828l-19.944-62.01
				c-2.311-7.187,1.642-14.886,8.827-17.198l452.856-145.647c7.187-2.311,14.886,1.641,17.197,8.828l19.944,62.01
				C3114.842,1078.523,3110.89,1086.223,3103.703,1088.534z"/>
			<path fill="#7D97F4" d="M3250.133,1244.399l-517.967,166.588c-7.186,2.312-14.885-1.641-17.197-8.828l-19.943-62.01
				c-2.311-7.187,1.641-14.886,8.827-17.198l517.966-166.588c7.188-2.311,14.887,1.641,17.198,8.828l19.943,62.01
				C3261.271,1234.388,3257.318,1242.088,3250.133,1244.399z"/>
			<path fill="#7D97F4" d="M3219.01,1461.047l-471.34,151.592c-7.186,2.311-14.887-1.641-17.197-8.828l-19.943-62.01
				c-2.313-7.187,1.641-14.887,8.827-17.198l471.34-151.592c7.187-2.312,14.886,1.641,17.197,8.827l19.944,62.01
				C3230.148,1451.036,3226.197,1458.735,3219.01,1461.047z"/>
		</g>
	</g>
</g>
</svg>
