<?xml version="1.0" encoding="utf-8"?>
<!-- Generator: Adobe Illustrator 16.0.0, SVG Export Plug-In . SVG Version: 6.00 Build 0)  -->
<!DOCTYPE svg PUBLIC "-//W3C//DTD SVG 1.1//EN" "http://www.w3.org/Graphics/SVG/1.1/DTD/svg11.dtd">
<svg version="1.1" xmlns="http://www.w3.org/2000/svg" xmlns:xlink="http://www.w3.org/1999/xlink" x="0px" y="0px" width="3710px"
	 height="3710px" viewBox="0 0 3710 3710" enable-background="new 0 0 3710 3710" xml:space="preserve">
<g id="Background">
</g>
<g id="Illustration">
	<g>
		<linearGradient id="SVGID_1_" gradientUnits="userSpaceOnUse" x1="3669.8975" y1="3566.0957" x2="1469.3672" y2="1592.0889">
			<stop  offset="0" style="stop-color:#DAE3FE"/>
			<stop  offset="1" style="stop-color:#E9EFFD"/>
		</linearGradient>
		<path fill="url(#SVGID_1_)" d="M2936.614,2882.801c-74.153,76.436-89.704,87.447-140.504,121.367
			c-495.444,330.813-1212.327,250.854-1387.427,218.264c-282.503-52.58-421.241-71.142-626.13-256.251
			C316.982,2545.555,339.626,1668.1,695.38,1124.554c42.182-64.448,391.188-564.513,958.762-638.707
			c13.881-1.815,671.415-88.643,1115.069,283.051c63.506,53.206,165.707,149.175,260.48,295.545
			C3376.226,1599.637,3377.323,2428.535,2936.614,2882.801z"/>
		<g>
			<path fill="#91B3FA" d="M3058.229,762.188c3.533-12.315,20.916-12.685,25.155-0.594
				c43.06,122.771,122.202,464.522-143.196,851.853c-332.982,485.963-323.34,731.477-248.853,916.904
				c0,0-156.519-150.369-172.874-402.91C2478.306,1507.396,2995.416,981.165,3058.229,762.188z"/>
			<path fill="#BDD0FB" d="M3038.006,957.536c-19.504,63.232-40.246,126.046-63.254,188.013
				c-22.68,62.075-47.229,123.436-73.658,183.942c-26.657,60.4-54.443,120.291-84.732,178.912
				c-30.023,58.754-62.538,116.153-95.385,173.669c-32.506,57.666-65.581,115.573-92.828,177.043
				c-27.246,61.316-47.611,126.871-55.395,194.202c-1.923,16.789-3.548,33.679-4.161,50.495
				c-0.926,16.813-1.107,33.672-0.987,50.525c0.409,33.716,3.057,67.462,8.195,100.857c10.449,66.775,31.061,131.908,59.453,192.725
				c2.987,6.4,10.6,9.166,17,6.178c6.285-2.934,9.066-10.326,6.335-16.652l-0.019-0.045c-6.487-14.988-12.795-30.031-18.41-45.303
				c-2.93-7.594-5.518-15.301-8.248-22.955c-2.438-7.749-5.178-15.406-7.373-23.223c-9.309-31.106-16.423-62.83-21.156-94.921
				c-9.77-64.067-10.016-129.926-2.693-194.261c4.025-32.137,10.411-63.92,19.222-95.104c8.835-31.178,20.078-61.727,33.074-91.656
				c26.003-59.894,58.267-117.48,90.356-175.376c32.021-57.951,63.803-116.405,93.127-176.076
				c14.742-29.792,28.947-59.846,42.606-90.138c6.916-15.106,13.539-30.344,20.188-45.567c6.502-15.288,12.92-30.608,19.211-45.979
				c25.053-61.53,48.217-123.794,69.381-186.704c20.863-63.01,40.047-126.553,56.75-190.728c0.477-1.835-0.623-3.708-2.457-4.185
				C3040.367,954.763,3038.547,955.796,3038.006,957.536z"/>
		</g>
		<g>
			<g>
				<path fill="#BDD0FB" d="M2456.699,2079.08c-16.383,16.998-44.801,11.739-54.299-9.873
					c-52.416-119.248-170.121-469.806,35.23-869.852c173.41-337.82,235.337-537.48,257.169-630.066
					c4.618-19.578,31.544-21.883,39.457-3.39C2821.559,769.933,3050.348,1463.18,2456.699,2079.08z"/>
				<linearGradient id="SVGID_2_" gradientUnits="userSpaceOnUse" x1="2416.6807" y1="1527.46" x2="2672.0176" y2="1527.46">
					<stop  offset="0" style="stop-color:#DAE3FE"/>
					<stop  offset="1" style="stop-color:#E9EFFD"/>
				</linearGradient>
				<path fill="url(#SVGID_2_)" d="M2427.43,2066.231c-0.576,0.097-1.17,0.14-1.776,0.122c-5.088-0.135-9.104-4.369-8.97-9.457
					c0.153-5.769,17.835-582.343,237.731-1062.952c2.118-4.624,7.585-6.661,12.218-4.547c4.629,2.12,6.664,7.587,4.548,12.218
					c-218.298,477.11-235.917,1050.04-236.07,1055.769C2434.992,2061.867,2431.693,2065.517,2427.43,2066.231z"/>
			</g>
		</g>
		<g>
			
				<linearGradient id="SVGID_3_" gradientUnits="userSpaceOnUse" x1="-945.3828" y1="2885.0586" x2="-372.4639" y2="1166.2966" gradientTransform="matrix(-1 0 0 1 1155.7773 0)">
				<stop  offset="0" style="stop-color:#09005D"/>
				<stop  offset="1" style="stop-color:#1A0F91"/>
			</linearGradient>
			<path fill="url(#SVGID_3_)" d="M621.835,2947.41c0,24.648,20.187,44.816,44.859,44.816h2425.79
				c24.672,0,44.859-20.168,44.859-44.816l20.186-1394.034c0-24.648-29.041-72.769-82.264-69.153L704.517,1422.88
				c-30.957-0.801-60.888,11.114-82.81,32.964c-21.921,21.851-33.917,51.725-33.185,82.653L621.835,2947.41z"/>
			<linearGradient id="SVGID_4_" gradientUnits="userSpaceOnUse" x1="595.4741" y1="2902.0801" x2="3150.2563" y2="1515.645">
				<stop  offset="0" style="stop-color:#FF928E"/>
				<stop  offset="1" style="stop-color:#FE7062"/>
			</linearGradient>
			<path fill="url(#SVGID_4_)" d="M666.123,2904.416c0,23.34,19.098,42.439,42.439,42.439h2325.423
				c23.342,0,42.439-19.1,42.439-42.439l19.047-1265.518c-2.242-76.156-69.011-103.526-109.483-101.911l-2272.147-60.958
				c-21.749-0.583-42.776,7.796-58.18,23.16c-15.404,15.364-23.875,36.391-23.33,58.14L666.123,2904.416z"/>
			<g opacity="0.6">
				<path fill="#FFFFFF" d="M3051.297,2303.207c-0.031,0-0.063,0-0.094,0c-3.436-0.051-6.18-2.875-6.127-6.314l1.506-102.631
					c0.05-3.402,2.824-6.128,6.214-6.128c0.031,0,0.063,0,0.094,0c3.436,0.05,6.18,2.874,6.127,6.313l-1.505,102.631
					C3057.461,2300.48,3054.686,2303.207,3051.297,2303.207z"/>
				<path fill="#FFFFFF" d="M3054.99,2051.706c-0.03,0-0.062,0-0.093,0c-3.437-0.05-6.181-2.88-6.128-6.313l5.771-393.08
					c-0.109-23.349-7.195-41.992-21.067-55.283c-25.894-24.807-67.003-23.541-68.735-23.46l-726.229-19.475
					c-3.434-0.087-6.143-2.949-6.05-6.382c0.09-3.433,2.729-6.357,6.386-6.047l725.797,19.475
					c4.516-0.267,48.285-1.024,77.436,26.906c16.398,15.713,24.775,37.36,24.9,64.328l-5.773,393.204
					C3061.154,2048.98,3058.38,2051.706,3054.99,2051.706z"/>
			</g>
			
				<linearGradient id="SVGID_5_" gradientUnits="userSpaceOnUse" x1="388.1689" y1="2782.2041" x2="-2164.1072" y2="3403.0283" gradientTransform="matrix(-1 0 0 1 1155.7773 0)">
				<stop  offset="0" style="stop-color:#09005D"/>
				<stop  offset="1" style="stop-color:#1A0F91"/>
			</linearGradient>
			<path fill="url(#SVGID_5_)" d="M430.698,3107.948h2848.603c3.11,0,5.654-2.544,5.654-5.653v-111.178
				c0-3.109-2.544-5.653-5.654-5.653H430.698c-3.109,0-5.653,2.544-5.653,5.653v111.178
				C425.045,3105.404,427.589,3107.948,430.698,3107.948z"/>
		</g>
		<g>
			<path fill="#91B3FA" d="M2215.152,819.064l-1439.396-8.813c-47.305-0.29-85.139,39.223-82.796,86.471l99.027,2045.038h1601.778
				l88.938-1827.131L2215.152,819.064z"/>
			<linearGradient id="SVGID_6_" gradientUnits="userSpaceOnUse" x1="2612.2617" y1="681.8496" x2="3214.6057" y2="32.7716">
				<stop  offset="0" style="stop-color:#4F52FF"/>
				<stop  offset="1" style="stop-color:#4042E2"/>
			</linearGradient>
			<path fill="url(#SVGID_6_)" d="M2275.005,1105.868c-46.888-1.65-82.935-42.062-79.239-88.832l15.43-195.278l271.791,291.671
				L2275.005,1105.868z"/>
			<g>
				<g>
					<path opacity="0.78" fill="#FFFFFF" d="M1452.398,1209.423c129.212-0.201,625.256-1.784,750.516-2.187
						c15.801-0.051,28.34,15.027,27.713,33.282l0,0c-0.598,17.376-12.977,31.231-28.016,31.359l-750.177,6.391
						c-14.45,0.123-26.491-12.499-27.779-29.119l-0.326-4.205C1422.858,1225.94,1435.875,1209.448,1452.398,1209.423z"/>
				</g>
				<g>
					<path opacity="0.78" fill="#FFFFFF" d="M1446.507,1352.868c129.213-0.201,625.257-1.784,750.517-2.187
						c15.8-0.051,28.34,15.028,27.711,33.282l0,0c-0.598,17.376-12.975,31.231-28.015,31.359l-750.177,6.391
						c-14.45,0.124-26.491-12.499-27.778-29.119l-0.326-4.205C1416.967,1369.385,1429.984,1352.893,1446.507,1352.868z"/>
				</g>
				<g>
					<path opacity="0.78" fill="#FFFFFF" d="M998.417,1557.293c199.559,0.141,965.632-0.131,1159.08-0.204
						c24.4-0.009,44.207,15.108,43.77,33.368l0,0c-0.417,17.382-19.13,31.209-42.355,31.297l-1158.433,4.411
						c-22.314,0.085-41.279-12.574-43.751-29.204l-0.625-4.208C953.274,1573.74,972.898,1557.276,998.417,1557.293z"/>
				</g>
				<g>
					<path opacity="0.78" fill="#FFFFFF" d="M989.196,1707.84c155.335-0.674,751.648-4.073,902.228-4.934
						c18.994-0.109,34.307,14.926,33.84,33.185l0,0c-0.443,17.381-15.105,31.283-33.184,31.466l-901.754,9.138
						c-17.37,0.176-32.044-12.404-33.854-29.021l-0.458-4.204C953.944,1724.468,969.333,1707.926,989.196,1707.84z"/>
				</g>
				<g>
					<path opacity="0.78" fill="#FFFFFF" d="M996.454,1904.955c199.559,0.141,965.632-0.131,1159.079-0.203
						c24.4-0.01,44.208,15.107,43.77,33.367l0,0c-0.416,17.381-19.129,31.209-42.354,31.297l-1158.434,4.412
						c-22.314,0.084-41.279-12.574-43.751-29.204l-0.625-4.207C951.312,1921.4,970.936,1904.938,996.454,1904.955z"/>
				</g>
				<g>
					<path opacity="0.78" fill="#FFFFFF" d="M979.091,2058.008c156.069,0.284,755.204,0.565,906.495,0.633
						c19.084,0.008,34.381,15.138,33.804,33.394l0,0c-0.549,17.378-15.36,31.189-33.526,31.261l-906.043,3.574
						c-17.452,0.068-32.122-12.602-33.842-29.23l-0.436-4.207C943.576,2074.418,959.135,2057.971,979.091,2058.008z"/>
				</g>
				<g>
					<path opacity="0.78" fill="#FFFFFF" d="M986.615,2259.709c199.559,0.141,965.633-0.131,1159.079-0.203
						c24.401-0.01,44.207,15.108,43.77,33.369l0,0c-0.417,17.381-19.13,31.208-42.354,31.297l-1158.433,4.41
						c-22.314,0.086-41.279-12.573-43.751-29.203l-0.625-4.207C941.473,2276.156,961.097,2259.691,986.615,2259.709z"/>
				</g>
				<g>
					<path opacity="0.78" fill="#FFFFFF" d="M974.563,2410.953c156.069,0.284,755.203,0.564,906.495,0.633
						c19.084,0.008,34.38,15.138,33.803,33.394l0,0c-0.549,17.378-15.361,31.188-33.525,31.261l-906.043,3.574
						c-17.453,0.068-32.123-12.602-33.843-29.23l-0.436-4.207C939.047,2427.363,954.606,2410.916,974.563,2410.953z"/>
				</g>
				<path opacity="0.78" fill="#FFFFFF" d="M998.417,2610.344c199.559,0.141,965.632-0.131,1159.08-0.203
					c24.4-0.01,44.207,15.107,43.77,33.368l0,0c-0.417,17.382-19.13,31.208-42.355,31.297l-1158.433,4.411
					c-22.314,0.085-41.279-12.573-43.751-29.203l-0.625-4.207C953.274,2626.791,972.898,2610.326,998.417,2610.344z"/>
				<path opacity="0.78" fill="#FFFFFF" d="M987.126,2777.969c154.098,0.009,745.665-0.771,895.045-0.971
					c18.843-0.025,33.961,15.076,33.41,33.333l0,0c-0.525,17.378-15.137,31.216-33.072,31.319l-894.596,5.178
					c-17.232,0.1-31.729-12.545-33.444-29.17l-0.434-4.205C952.076,2794.442,967.422,2777.969,987.126,2777.969z"/>
			</g>
			<g opacity="0.78">
				<path fill="#FFFFFF" d="M1141.976,1118.359l-81.111,298.597l-21.942-0.368l-143.11-366.337
					c-6.551-17.292-13.219-27.621-19.996-30.99c-6.788-3.364-25.294-5.597-55.601-6.684v-5.63l222.583,8.046v5.57
					c-26.298-0.943-44.554-0.251-54.714,2.08c-10.18,2.333-15.269,7.441-15.269,15.319c0,4.152,1.3,9.186,3.901,15.076
					l101.541,262.886l58.581-213.127l-13.626-44.555c-5.178-16.75-11.433-26.915-18.773-30.492
					c-7.342-3.579-26.153-5.913-56.494-7.002v-5.568l218.82,7.91v5.51c-25.633-0.919-43.427-0.226-53.337,2.086
					c-9.919,2.313-14.877,7.781-14.877,16.399c0,4.51,0.843,9.061,2.542,13.628l81.717,260.256l69.255-188.505
					c7.036-19.723,10.559-35.901,10.559-48.526c0-34.6-25.073-52.798-75.401-54.604v-5.504l161.43,5.835v5.461
					c-29.434-1.056-51.247,12.988-65.391,42.157c-2.089,4.401-9.797,24.07-23.143,59.039l-103.212,283.925l-20.895-0.351
					L1141.976,1118.359z"/>
			</g>
		</g>
		<g>
			<g>
				<g>
					
						<linearGradient id="SVGID_7_" gradientUnits="userSpaceOnUse" x1="-2544.8467" y1="2942.291" x2="-2378.2478" y2="2942.291" gradientTransform="matrix(-1 0 0 1 83.0107 0)">
						<stop  offset="0" style="stop-color:#4F52FF"/>
						<stop  offset="1" style="stop-color:#4042E2"/>
					</linearGradient>
					<path fill="url(#SVGID_7_)" d="M2465.963,2934.232c28.54,2.467,78.074,6.474,117.123,8.192
						c23.475,1.034,36.988-1.266,44.771-4.382c-0.014,0.878-0.037,1.707-0.072,2.477c-0.185,4.109-3.523,7.396-7.674,7.629
						c-73.787,4.118-132.469,1.426-153.36,0.154c-4.319-0.264-6.895-4.958-4.685-8.641
						C2463.171,2937.82,2464.51,2936.016,2465.963,2934.232z"/>
					
						<linearGradient id="SVGID_8_" gradientUnits="userSpaceOnUse" x1="-2544.8562" y1="2909.6387" x2="-2382.9521" y2="2909.6387" gradientTransform="matrix(-1 0 0 1 83.0107 0)">
						<stop  offset="0" style="stop-color:#09005D"/>
						<stop  offset="1" style="stop-color:#1A0F91"/>
					</linearGradient>
					<path fill="url(#SVGID_8_)" d="M2583.086,2942.425c-39.049-1.719-88.583-5.726-117.123-8.192
						c28.061-34.428,117.123-57.631,117.123-57.631h25.154c17.301,24.939,19.807,48.683,19.617,61.441
						C2620.074,2941.159,2606.561,2943.459,2583.086,2942.425z"/>
					<linearGradient id="SVGID_9_" gradientUnits="userSpaceOnUse" x1="2634.5" y1="2825.8926" x2="2940.8831" y2="2593.9414">
						<stop  offset="0" style="stop-color:#FEBBBA"/>
						<stop  offset="1" style="stop-color:#FF928E"/>
					</linearGradient>
					<path fill="url(#SVGID_9_)" d="M2612.477,2835.536l-2.354,46.581c-0.255,5.045-4.03,9.283-9.082,10.006
						c-5.026,0.719-11.758,0.811-18.896-1.566c-4.392-1.461-7.652-5.161-8.461-9.675l-8.135-45.346H2612.477z"/>
				</g>
				<g>
					<g>
						
							<linearGradient id="SVGID_10_" gradientUnits="userSpaceOnUse" x1="-2876.9753" y1="2938.6973" x2="-2813.1328" y2="2938.6973" gradientTransform="matrix(-1 0 0 1 83.0107 0)">
							<stop  offset="0" style="stop-color:#4F52FF"/>
							<stop  offset="1" style="stop-color:#4042E2"/>
						</linearGradient>
						<path fill="url(#SVGID_10_)" d="M2939.197,2942.075c12.377-1.726,17.977-8.155,20.325-15.028
							c0.015,0.061,0.03,0.123,0.046,0.184c1.82,7.252-2.4,14.766-10.84,18.34c-10.2,4.319-21.354,5.056-30.012,4.699
							c-9.289-0.384-17.816-4.228-22.504-10.38l-0.069-0.093C2905.467,2944.41,2918.557,2944.954,2939.197,2942.075z"/>
						
							<linearGradient id="SVGID_11_" gradientUnits="userSpaceOnUse" x1="-2876.5117" y1="2889.5391" x2="-2782.8018" y2="2889.5391" gradientTransform="matrix(-1 0 0 1 83.0107 0)">
							<stop  offset="0" style="stop-color:#09005D"/>
							<stop  offset="1" style="stop-color:#1A0F91"/>
						</linearGradient>
						<path fill="url(#SVGID_11_)" d="M2880.844,2835.237h20.743c31.598-0.646,51.44,66,57.936,91.81
							c-2.349,6.873-7.948,13.303-20.325,15.028c-20.641,2.879-33.73,2.335-43.054-2.278
							c-17.071-22.463-25.535-55.364-29.603-74.565C2861.914,2843.395,2880.844,2835.237,2880.844,2835.237z"/>
					</g>
					<linearGradient id="SVGID_12_" gradientUnits="userSpaceOnUse" x1="2907.2158" y1="2807.001" x2="3182.4382" y2="2606.2095">
						<stop  offset="0" style="stop-color:#FEBBBA"/>
						<stop  offset="1" style="stop-color:#FF928E"/>
					</linearGradient>
					<path fill="url(#SVGID_12_)" d="M2898.92,2792.002l11.52,45.814c1.412,5.618-1.276,11.428-6.469,14.094
						c-6.444,3.307-15.518,6.781-23.855,5.775c-3.921-0.473-7.179-3.234-8.474-6.927l-16.911-48.202L2898.92,2792.002z"/>
				</g>
				<linearGradient id="SVGID_13_" gradientUnits="userSpaceOnUse" x1="3211.7285" y1="1510.9697" x2="2780.7407" y2="2336.5981">
					<stop  offset="0" style="stop-color:#4F52FF"/>
					<stop  offset="1" style="stop-color:#4042E2"/>
				</linearGradient>
				<path fill="url(#SVGID_13_)" d="M2912.66,2805.244c-14.33,12.713-60.945,14.392-60.945,14.392
					c-167.915-403.013-236.604-460.266-236.604-460.266c24.245,152.115,3.908,488.88,3.908,488.88c-27.709,12.227-63.432,0-63.432,0
					c-2.25-249.033-40.528-466.214-85.747-637.434c113.489-2.551,173.843-41.387,193.55-56.975
					C2757.992,2306.359,2912.66,2805.244,2912.66,2805.244z"/>
				
					<linearGradient id="SVGID_14_" gradientUnits="userSpaceOnUse" x1="-2122.5127" y1="1654.1938" x2="-3408.1982" y2="2772.4141" gradientTransform="matrix(-1 0 0 1 83.0107 0)">
					<stop  offset="0" style="stop-color:#4F52FF"/>
					<stop  offset="1" style="stop-color:#4042E2"/>
				</linearGradient>
				<path fill="url(#SVGID_14_)" d="M2634.568,1690.377c21.48,107.148,13.782,298.925,8.727,386.399
					c-1.422,24.587,15.741,58.671,29.613,81.923c2.176,3.648,0.832,8.317-2.944,10.259
					c-23.226,11.937-101.911,48.933-193.104,53.536c-6.081,0.307-11.511-3.836-13.085-9.717
					c-67.645-252.577-146.215-413.976-146.215-413.976C2404.305,1660.279,2634.568,1690.377,2634.568,1690.377z"/>
				
					<linearGradient id="SVGID_15_" gradientUnits="userSpaceOnUse" x1="-2638.8101" y1="2617.2393" x2="-2611.9365" y2="2563.4922" gradientTransform="matrix(-1 0 0 1 83.0107 0)">
					<stop  offset="0" style="stop-color:#53D8FF"/>
					<stop  offset="1" style="stop-color:#3840F7"/>
				</linearGradient>
				<path fill="url(#SVGID_15_)" d="M2603.652,2349.829c0.954,0,1.92-0.257,2.795-0.788c2.533-1.549,3.338-4.852,1.796-7.383
					c-0.903-1.486-22.624-36.594-66.577-57.8c-2.671-1.282-5.888-0.173-7.182,2.505c-1.289,2.674-0.168,5.893,2.507,7.18
					c40.976,19.771,61.859,53.371,62.066,53.707C2600.071,2348.91,2601.842,2349.829,2603.652,2349.829z"/>
				<g>
					
						<linearGradient id="SVGID_16_" gradientUnits="userSpaceOnUse" x1="-2749.4648" y1="2165.6084" x2="-2949.1133" y2="2342.4016" gradientTransform="matrix(-1 0 0 1 83.0107 0)">
						<stop  offset="0" style="stop-color:#FEBBBA"/>
						<stop  offset="1" style="stop-color:#FF928E"/>
					</linearGradient>
					<path fill="url(#SVGID_16_)" d="M2769.308,1997.893c-6.899,49.915-27.285,104.36-68.067,162.193l-15.503-12.639
						c0,0,17.897-72.609,7.723-155.013C2718.617,1987.527,2748.328,1992.586,2769.308,1997.893z"/>
					
						<linearGradient id="SVGID_17_" gradientUnits="userSpaceOnUse" x1="-2229.6973" y1="1535.6943" x2="-3509.582" y2="2648.8694" gradientTransform="matrix(-1 0 0 1 83.0107 0)">
						<stop  offset="0" style="stop-color:#4F52FF"/>
						<stop  offset="1" style="stop-color:#4042E2"/>
					</linearGradient>
					<path fill="url(#SVGID_17_)" d="M2610.574,1822.584l23.994-132.207c0,0,160.309,122.538,134.739,307.515
						c-20.979-5.307-50.69-10.365-75.848-5.458C2686.131,1933.074,2664.239,1868.633,2610.574,1822.584z"/>
				</g>
				<g>
					
						<linearGradient id="SVGID_18_" gradientUnits="userSpaceOnUse" x1="-2028.5" y1="1767.02" x2="-3308.3896" y2="2880.1992" gradientTransform="matrix(-1 0 0 1 83.0107 0)">
						<stop  offset="0" style="stop-color:#4F52FF"/>
						<stop  offset="1" style="stop-color:#4042E2"/>
					</linearGradient>
					<path fill="url(#SVGID_18_)" d="M2317.561,1798.801l61.879,133.265c-10.006,80.457-53.227,115.245-99.828,128.588
						c-2.906-36.668-12.178-66.293-20.781-86.784C2318.375,1912.392,2317.561,1798.801,2317.561,1798.801z"/>
					
						<linearGradient id="SVGID_19_" gradientUnits="userSpaceOnUse" x1="-2196.6006" y1="2024.1719" x2="-2039.3701" y2="2024.1719" gradientTransform="matrix(-1 0 0 1 83.0107 0)">
						<stop  offset="0" style="stop-color:#FEBBBA"/>
						<stop  offset="1" style="stop-color:#FF928E"/>
					</linearGradient>
					<path fill="url(#SVGID_19_)" d="M2258.83,1973.87c8.604,20.491,17.875,50.116,20.781,86.784
						c-124.335,48.24-157.23-45.314-157.23-45.314l22.979-4.055C2197.251,2016.752,2233.498,2000.023,2258.83,1973.87z"/>
				</g>
				
					<linearGradient id="SVGID_20_" gradientUnits="userSpaceOnUse" x1="-2349.4307" y1="1603.9971" x2="-2351.1479" y2="1897.6121" gradientTransform="matrix(-1 0 0 1 83.0107 0)">
					<stop  offset="0" style="stop-color:#FEBBBA"/>
					<stop  offset="1" style="stop-color:#FF928E"/>
				</linearGradient>
				<path fill="url(#SVGID_20_)" d="M2374.571,1634.275l29.874,109.817c3.355,12.337,16.699,18.962,28.57,14.216
					c12.812-5.121,29.064-12.112,43.058-19.667c14.937-8.064,19.608-27.276,10.153-41.374l-62.107-92.607L2374.571,1634.275z"/>
			</g>
			<g>
				
					<linearGradient id="SVGID_21_" gradientUnits="userSpaceOnUse" x1="-2527.2073" y1="2703.6201" x2="-2671.738" y2="2894.8225" gradientTransform="matrix(-0.9897 -0.1428 -0.1428 0.9897 222.0674 -1480.9404)">
					<stop  offset="0" style="stop-color:#FEBBBA"/>
					<stop  offset="1" style="stop-color:#FF928E"/>
				</linearGradient>
				<path fill="url(#SVGID_21_)" d="M2309.215,1550.839c-0.271,1.886,24.917,125.319,24.917,125.319l70.173-15.88l-6.492-120.537
					C2397.813,1539.742,2313.771,1519.268,2309.215,1550.839z"/>
				
					<linearGradient id="SVGID_22_" gradientUnits="userSpaceOnUse" x1="-2637.5864" y1="2749.7422" x2="-2464.9431" y2="2749.7422" gradientTransform="matrix(-0.9897 -0.1428 -0.1428 0.9897 222.0674 -1480.9404)">
					<stop  offset="0" style="stop-color:#09005D"/>
					<stop  offset="1" style="stop-color:#1A0F91"/>
				</linearGradient>
				<path fill="url(#SVGID_22_)" d="M2382.029,1566.602l8.387,63.185c0.107,0.81,0.106,1.61-0.009,2.42
					c-0.708,4.953-4.392,21.814-21.413,16.992c-15.445-4.375-29.605-8.138-39.387-5.146c-4.392,1.343-7.042,5.792-6.123,10.292
					c2.293,11.214,7.923,36.389,16.152,57.514c1.67,4.287,6.365,6.538,10.781,5.25c13.309-3.88,41.148-12.848,61.856-25.31
					c2.806-1.688,4.478-4.74,4.339-8.012c-0.673-15.951-2.539-64.438-0.968-78.031c1.474-12.757,17.13-20.4,23.933-23.141
					c2.23-0.898,3.979-2.655,4.869-4.889c3.15-7.894,7.494-26.161-15.525-33.646c-4.818-1.567-7.358-6.761-5.646-11.529
					c3.41-9.492,4.848-23.978-12.961-31.959c-18.102-8.112-31.619,1.537-38.918,9.379c-2.951,3.17-7.688,3.654-11.35,1.34
					c-2.086-1.317-4.771-1.75-8.016,0.272c-4.373,2.724-10.164,0.867-12.42-3.764c-4.335-8.897-13.168-18.428-30.89-15.393
					c-31.445,5.385-35.007,40.23-26.712,60.65c8.296,20.419,42.057,12.643,58.992,2.349c12.877-7.827,29.58,0.377,36.848,4.759
					C2380.152,1561.573,2381.676,1563.937,2382.029,1566.602z"/>
				
					<linearGradient id="SVGID_23_" gradientUnits="userSpaceOnUse" x1="-2738.8875" y1="2855.0371" x2="-2622.9617" y2="2736.1003" gradientTransform="matrix(-0.9897 -0.1428 -0.1428 0.9897 222.0674 -1480.9404)">
					<stop  offset="0" style="stop-color:#FEBBBA"/>
					<stop  offset="1" style="stop-color:#FF928E"/>
				</linearGradient>
				<path fill="url(#SVGID_23_)" d="M2418.469,1628.793c0,0-12.926-36.2,0.354-45.065c13.282-8.865,32.952-4.262,28.622,21.961
					C2442.058,1638.309,2418.469,1628.793,2418.469,1628.793z"/>
			</g>
			
				<linearGradient id="SVGID_24_" gradientUnits="userSpaceOnUse" x1="-2056.0747" y1="2005.7061" x2="-1999.77" y2="2005.7061" gradientTransform="matrix(-1 0 0 1 83.0107 0)">
				<stop  offset="0" style="stop-color:#FEBBBA"/>
				<stop  offset="1" style="stop-color:#FF928E"/>
			</linearGradient>
			<path fill="url(#SVGID_24_)" d="M2131.598,2032.457c-6.258,4.889-27.699-5.318-40.819-12.375
				c-6.394-3.439-9.491-10.917-7.296-17.838c3.156-9.957,8.418-22.81,14.9-24.43
				C2109.139,1975.125,2157.389,2012.309,2131.598,2032.457z"/>
			<g>
				<g>
					
						<linearGradient id="SVGID_25_" gradientUnits="userSpaceOnUse" x1="-1428.6084" y1="1568.7183" x2="-3803.4409" y2="3301.1172" gradientTransform="matrix(-1 0 0 1 83.0107 0)">
						<stop  offset="0" style="stop-color:#09005D"/>
						<stop  offset="1" style="stop-color:#1A0F91"/>
					</linearGradient>
					<path fill="url(#SVGID_25_)" d="M3187.32,2334.851l-1637.295-582.309l-86.624,240.623l1636.728,598.574
						c34.764,12.715,73.561-1.385,92.188-33.371c19.134-32.856,37.417-84.193,38.52-161.087
						C3231.236,2369.324,3213.662,2344.219,3187.32,2334.851z"/>
					<g>
						
							<linearGradient id="SVGID_26_" gradientUnits="userSpaceOnUse" x1="-1345.3491" y1="1954.2607" x2="-1032.5404" y2="1682.3574" gradientTransform="matrix(-1 0 0 1 83.0107 0)">
							<stop  offset="0" style="stop-color:#09005D"/>
							<stop  offset="1" style="stop-color:#1A0F91"/>
						</linearGradient>
						<path fill="url(#SVGID_26_)" d="M1043.496,1690.351l226.166,27.768c-0.239,31.128-10.432,71.399-44.935,117.599
							l-188.876-124.595C1025.823,1704.509,1031.573,1688.887,1043.496,1690.351z"/>
						
							<linearGradient id="SVGID_27_" gradientUnits="userSpaceOnUse" x1="-1071.8584" y1="1555.1846" x2="-2230.0576" y2="2745.4678" gradientTransform="matrix(-1 0 0 1 83.0107 0)">
							<stop  offset="0" style="stop-color:#FF928E"/>
							<stop  offset="1" style="stop-color:#FE7062"/>
						</linearGradient>
						<path fill="url(#SVGID_27_)" d="M1550.025,1752.542c10.36,150.798-86.624,240.623-86.624,240.623l-238.674-157.446
							c34.502-46.2,44.696-86.471,44.935-117.599L1550.025,1752.542z"/>
					</g>
				</g>
				
					<linearGradient id="SVGID_28_" gradientUnits="userSpaceOnUse" x1="-1778.1514" y1="1589.9302" x2="-2823.3911" y2="2664.1245" gradientTransform="matrix(-1 0 0 1 83.0107 0)">
					<stop  offset="0" style="stop-color:#4F52FF"/>
					<stop  offset="1" style="stop-color:#4042E2"/>
				</linearGradient>
				<path fill="url(#SVGID_28_)" d="M3167.01,2408.638c1.982,0,3.839-1.231,4.535-3.21c0.888-2.505-0.428-5.254-2.934-6.138
					l-1566.452-553.597c-2.515-0.883-5.259,0.428-6.138,2.933c-0.888,2.505,0.428,5.254,2.933,6.138l1566.453,553.597
					C3165.938,2408.549,3166.479,2408.638,3167.01,2408.638z"/>
				
					<linearGradient id="SVGID_29_" gradientUnits="userSpaceOnUse" x1="-1751.1274" y1="1684.3281" x2="-2796.3694" y2="2758.5249" gradientTransform="matrix(-1 0 0 1 83.0107 0)">
					<stop  offset="0" style="stop-color:#4F52FF"/>
					<stop  offset="1" style="stop-color:#4042E2"/>
				</linearGradient>
				<path fill="url(#SVGID_29_)" d="M3139.986,2503.039c1.982,0,3.839-1.23,4.535-3.209c0.888-2.506-0.428-5.254-2.934-6.139
					l-1566.452-553.601c-2.515-0.884-5.255,0.423-6.138,2.933c-0.888,2.505,0.428,5.254,2.933,6.138l1566.453,553.601
					C3138.914,2502.95,3139.455,2503.039,3139.986,2503.039z"/>
			</g>
			
				<linearGradient id="SVGID_30_" gradientUnits="userSpaceOnUse" x1="-2492.0198" y1="2096.4824" x2="-2691.6653" y2="2273.2729" gradientTransform="matrix(-1 0 0 1 83.0107 0)">
				<stop  offset="0" style="stop-color:#FEBBBA"/>
				<stop  offset="1" style="stop-color:#FF928E"/>
			</linearGradient>
			<path fill="url(#SVGID_30_)" d="M2692.131,2145.246l-72.365-5.897l-31.34,28.89c0,0,7.415,10.248,30.594,4.357
				c23.181-5.891,54.932-7.336,54.932-7.336s32,14.426,32.391-12.566L2692.131,2145.246z"/>
		</g>
	</g>
</g>
</svg>
